<mxfile host="Electron" modified="2024-06-18T19:18:10.815Z" agent="Mozilla/5.0 (X11; Linux x86_64) AppleWebKit/537.36 (KHTML, like Gecko) draw.io/24.5.3 Chrome/124.0.6367.207 Electron/30.0.6 Safari/537.36" etag="rMwbdfMUKKsom0EdkOja" version="24.5.3" type="device">
  <diagram name="olo_intf_clk_meas" id="sQZPAQ0m2a0brsjAJA3f">
    <mxGraphModel dx="1148" dy="703" grid="1" gridSize="10" guides="1" tooltips="1" connect="1" arrows="1" fold="1" page="1" pageScale="1" pageWidth="10000" pageHeight="10000" math="0" shadow="0">
      <root>
        <mxCell id="0" />
        <mxCell id="1" parent="0" />
        <mxCell id="PSY3O32hWjbgZapY0Pud-1" value="" style="endArrow=none;dashed=1;html=1;dashPattern=1 3;strokeWidth=2;rounded=0;" edge="1" parent="1">
          <mxGeometry width="50" height="50" relative="1" as="geometry">
            <mxPoint x="590" y="400" as="sourcePoint" />
            <mxPoint x="590" y="230" as="targetPoint" />
          </mxGeometry>
        </mxCell>
        <mxCell id="AOXMBswyJ1LjR48XTfQb-1" value="olo_base_strobe_gen" style="rounded=1;whiteSpace=wrap;html=1;fillColor=#f5f5f5;fontColor=#333333;strokeColor=#666666;" vertex="1" parent="1">
          <mxGeometry x="680" y="220" width="140" height="40" as="geometry" />
        </mxCell>
        <mxCell id="AOXMBswyJ1LjR48XTfQb-2" value="" style="endArrow=classic;html=1;rounded=0;exitX=0.286;exitY=1;exitDx=0;exitDy=0;exitPerimeter=0;" edge="1" parent="1" source="AOXMBswyJ1LjR48XTfQb-1">
          <mxGeometry width="50" height="50" relative="1" as="geometry">
            <mxPoint x="720" y="270" as="sourcePoint" />
            <mxPoint x="760" y="300" as="targetPoint" />
            <Array as="points">
              <mxPoint x="720" y="300" />
            </Array>
          </mxGeometry>
        </mxCell>
        <mxCell id="AOXMBswyJ1LjR48XTfQb-3" value="Measurement Clock Logic" style="rounded=1;whiteSpace=wrap;html=1;fillColor=#f8cecc;strokeColor=#b85450;arcSize=11;" vertex="1" parent="1">
          <mxGeometry x="360" y="280" width="120" height="100" as="geometry" />
        </mxCell>
        <mxCell id="AOXMBswyJ1LjR48XTfQb-4" value="Main Clock&lt;div&gt;Logic&lt;/div&gt;" style="rounded=1;whiteSpace=wrap;html=1;fillColor=#dae8fc;strokeColor=#6c8ebf;arcSize=9;" vertex="1" parent="1">
          <mxGeometry x="760" y="280" width="120" height="100" as="geometry" />
        </mxCell>
        <mxCell id="AOXMBswyJ1LjR48XTfQb-6" value="olo_base_cc_pulse" style="rounded=1;whiteSpace=wrap;html=1;fillColor=#f5f5f5;fontColor=#333333;strokeColor=#666666;" vertex="1" parent="1">
          <mxGeometry x="520" y="280" width="140" height="40" as="geometry" />
        </mxCell>
        <mxCell id="AOXMBswyJ1LjR48XTfQb-7" value="olo_base_cc_simple" style="rounded=1;whiteSpace=wrap;html=1;fillColor=#f5f5f5;fontColor=#333333;strokeColor=#666666;" vertex="1" parent="1">
          <mxGeometry x="520" y="340" width="140" height="40" as="geometry" />
        </mxCell>
        <mxCell id="aHTbgJyylSWCs0f_kwC2-1" value="1Hz" style="text;html=1;align=center;verticalAlign=middle;whiteSpace=wrap;rounded=0;fontSize=8;" vertex="1" parent="1">
          <mxGeometry x="700" y="280" width="60" height="10" as="geometry" />
        </mxCell>
        <mxCell id="aHTbgJyylSWCs0f_kwC2-2" value="" style="endArrow=classic;html=1;rounded=0;startArrow=oval;startFill=1;" edge="1" parent="1">
          <mxGeometry width="50" height="50" relative="1" as="geometry">
            <mxPoint x="720" y="300" as="sourcePoint" />
            <mxPoint x="660" y="300" as="targetPoint" />
          </mxGeometry>
        </mxCell>
        <mxCell id="aHTbgJyylSWCs0f_kwC2-3" value="" style="endArrow=classic;html=1;rounded=0;entryX=1;entryY=0.25;entryDx=0;entryDy=0;" edge="1" parent="1">
          <mxGeometry width="50" height="50" relative="1" as="geometry">
            <mxPoint x="520" y="299.76" as="sourcePoint" />
            <mxPoint x="480" y="299.76" as="targetPoint" />
          </mxGeometry>
        </mxCell>
        <mxCell id="aHTbgJyylSWCs0f_kwC2-4" value="1Hz" style="text;html=1;align=center;verticalAlign=middle;whiteSpace=wrap;rounded=0;fontSize=8;" vertex="1" parent="1">
          <mxGeometry x="470" y="290" width="60" height="10" as="geometry" />
        </mxCell>
        <mxCell id="aHTbgJyylSWCs0f_kwC2-5" value="" style="endArrow=classic;html=1;rounded=0;" edge="1" parent="1">
          <mxGeometry width="50" height="50" relative="1" as="geometry">
            <mxPoint x="480" y="350" as="sourcePoint" />
            <mxPoint x="520" y="350.24" as="targetPoint" />
          </mxGeometry>
        </mxCell>
        <mxCell id="aHTbgJyylSWCs0f_kwC2-6" value="Valid" style="text;html=1;align=center;verticalAlign=middle;whiteSpace=wrap;rounded=0;fontSize=8;" vertex="1" parent="1">
          <mxGeometry x="470" y="340" width="60" height="10" as="geometry" />
        </mxCell>
        <mxCell id="aHTbgJyylSWCs0f_kwC2-8" value="" style="endArrow=classic;html=1;rounded=0;" edge="1" parent="1">
          <mxGeometry width="50" height="50" relative="1" as="geometry">
            <mxPoint x="480" y="370" as="sourcePoint" />
            <mxPoint x="520" y="370.24" as="targetPoint" />
          </mxGeometry>
        </mxCell>
        <mxCell id="aHTbgJyylSWCs0f_kwC2-9" value="Freq" style="text;html=1;align=center;verticalAlign=middle;whiteSpace=wrap;rounded=0;fontSize=8;" vertex="1" parent="1">
          <mxGeometry x="470" y="360" width="60" height="10" as="geometry" />
        </mxCell>
        <mxCell id="aHTbgJyylSWCs0f_kwC2-10" value="" style="endArrow=classic;html=1;rounded=0;" edge="1" parent="1">
          <mxGeometry width="50" height="50" relative="1" as="geometry">
            <mxPoint x="660" y="349.52" as="sourcePoint" />
            <mxPoint x="760" y="349.52" as="targetPoint" />
          </mxGeometry>
        </mxCell>
        <mxCell id="aHTbgJyylSWCs0f_kwC2-11" value="" style="endArrow=classic;html=1;rounded=0;" edge="1" parent="1">
          <mxGeometry width="50" height="50" relative="1" as="geometry">
            <mxPoint x="660" y="370" as="sourcePoint" />
            <mxPoint x="760" y="370" as="targetPoint" />
          </mxGeometry>
        </mxCell>
        <mxCell id="aHTbgJyylSWCs0f_kwC2-12" value="Valid" style="text;html=1;align=center;verticalAlign=middle;whiteSpace=wrap;rounded=0;fontSize=8;" vertex="1" parent="1">
          <mxGeometry x="680" y="340" width="60" height="10" as="geometry" />
        </mxCell>
        <mxCell id="aHTbgJyylSWCs0f_kwC2-13" value="Freq" style="text;html=1;align=center;verticalAlign=middle;whiteSpace=wrap;rounded=0;fontSize=8;" vertex="1" parent="1">
          <mxGeometry x="680" y="360" width="60" height="10" as="geometry" />
        </mxCell>
        <mxCell id="yst9ptPk6XY67HGak2WZ-1" value="" style="endArrow=classic;html=1;rounded=0;" edge="1" parent="1">
          <mxGeometry width="50" height="50" relative="1" as="geometry">
            <mxPoint x="880" y="299.31" as="sourcePoint" />
            <mxPoint x="930" y="299" as="targetPoint" />
          </mxGeometry>
        </mxCell>
        <mxCell id="yst9ptPk6XY67HGak2WZ-2" value="Freq_Hz" style="text;html=1;align=left;verticalAlign=middle;whiteSpace=wrap;rounded=0;" vertex="1" parent="1">
          <mxGeometry x="930" y="290" width="60" height="20" as="geometry" />
        </mxCell>
        <mxCell id="yst9ptPk6XY67HGak2WZ-3" value="" style="endArrow=classic;html=1;rounded=0;" edge="1" parent="1">
          <mxGeometry width="50" height="50" relative="1" as="geometry">
            <mxPoint x="880" y="359.31" as="sourcePoint" />
            <mxPoint x="930" y="359" as="targetPoint" />
          </mxGeometry>
        </mxCell>
        <mxCell id="yst9ptPk6XY67HGak2WZ-4" value="Freq_Valid" style="text;html=1;align=left;verticalAlign=middle;whiteSpace=wrap;rounded=0;" vertex="1" parent="1">
          <mxGeometry x="930" y="350" width="60" height="20" as="geometry" />
        </mxCell>
      </root>
    </mxGraphModel>
  </diagram>
</mxfile>
